HIERARCHY
ROOT Hips
{
	OFFSET -14.64140 90.27770 -84.91600
	CHANNELS 6 Xposition Yposition Zposition Zrotation Xrotation Yrotation
	JOINT Spine
	{
		OFFSET 0.00000 13.20850 -1.60436
		CHANNELS 3 Zrotation Xrotation Yrotation
		JOINT Spine1
		{
			OFFSET 0.00000 8.61716 0.00000
			CHANNELS 3 Zrotation Xrotation Yrotation
			JOINT Spine2
			{
				OFFSET 0.00000 8.61717 0.00000
				CHANNELS 3 Zrotation Xrotation Yrotation
				JOINT Spine3
				{
					OFFSET 0.00000 8.61717 0.00000
					CHANNELS 3 Zrotation Xrotation Yrotation
					JOINT Neck
					{
						OFFSET 0.00000 11.07920 1.10792
						CHANNELS 3 Zrotation Xrotation Yrotation
						JOINT Neck1
						{
							OFFSET 0.00000 7.08032 0.00000
							CHANNELS 3 Zrotation Xrotation Yrotation
							JOINT Head
							{
								OFFSET 0.00000 7.08031 0.00000
								CHANNELS 3 Zrotation Xrotation Yrotation
								End site
								{
									OFFSET 0.00000 0.00000 0.00000
								}
							}
						}
					}
					JOINT RightShoulder
					{
						OFFSET -0.01000 7.91373 5.19711
						CHANNELS 3 Zrotation Xrotation Yrotation
						JOINT RightArm
						{
							OFFSET -18.41580 0.00000 0.00000
							CHANNELS 3 Zrotation Xrotation Yrotation
							JOINT RightForeArm
							{
								OFFSET -29.11090 0.00000 0.00000
								CHANNELS 3 Zrotation Xrotation Yrotation
								JOINT RightHand
								{
									OFFSET -24.65040 0.00000 0.00000
									CHANNELS 3 Zrotation Xrotation Yrotation
									JOINT RightHandThumb1
									{
										OFFSET -5.35114 -0.85590 3.97906
										CHANNELS 3 Zrotation Xrotation Yrotation
										JOINT RightHandThumb2
										{
											OFFSET -4.52789 0.00000 0.00000
											CHANNELS 3 Zrotation Xrotation Yrotation
											JOINT RightHandThumb3
											{
												OFFSET -2.46976 0.00000 0.00000
												CHANNELS 3 Zrotation Xrotation Yrotation
												End site
												{
													OFFSET 0.00000 0.00000 0.00000
												}
											}
										}
									}
									JOINT RightHandIndex1
									{
										OFFSET -14.26970 0.00000 2.88139
										CHANNELS 3 Zrotation Xrotation Yrotation
										JOINT RightHandIndex2
										{
											OFFSET -5.48836 0.00000 0.00000
											CHANNELS 3 Zrotation Xrotation Yrotation
											JOINT RightHandIndex3
											{
												OFFSET -3.01859 0.00000 0.00000
												CHANNELS 3 Zrotation Xrotation Yrotation
												End site
												{
													OFFSET 0.00000 0.00000 0.00000
												}
											}
										}
									}
									JOINT RightHandMiddle1
									{
										OFFSET -14.26970 0.00000 -0.09147
										CHANNELS 3 Zrotation Xrotation Yrotation
										JOINT RightHandMiddle2
										{
											OFFSET -6.17441 0.00000 0.00000
											CHANNELS 3 Zrotation Xrotation Yrotation
											JOINT RightHandMiddle3
											{
												OFFSET -3.56743 0.00000 0.00000
												CHANNELS 3 Zrotation Xrotation Yrotation
												End site
												{
													OFFSET 0.00000 0.00000 0.00000
												}
											}
										}
									}
									JOINT RightHandRing1
									{
										OFFSET -12.69180 0.00000 -3.06433
										CHANNELS 3 Zrotation Xrotation Yrotation
										JOINT RightHandRing2
										{
											OFFSET -5.62556 0.00000 0.00000
											CHANNELS 3 Zrotation Xrotation Yrotation
											JOINT RightHandRing3
											{
												OFFSET -3.56744 0.00000 0.00000
												CHANNELS 3 Zrotation Xrotation Yrotation
												End site
												{
													OFFSET 0.00000 0.00000 0.00000
												}
											}
										}
									}
									JOINT RightHandPinky1
									{
										OFFSET -11.11390 0.00000 -6.03719
										CHANNELS 3 Zrotation Xrotation Yrotation
										JOINT RightHandPinky2
										{
											OFFSET -4.52789 0.00000 0.00000
											CHANNELS 3 Zrotation Xrotation Yrotation
											JOINT RightHandPinky3
											{
												OFFSET -2.46976 0.00000 0.00000
												CHANNELS 3 Zrotation Xrotation Yrotation
												End site
												{
													OFFSET 0.00000 0.00000 0.00000
												}
											}
										}
									}
								}
							}
						}
					}
					JOINT LeftShoulder
					{
						OFFSET 0.01000 7.91373 5.19711
						CHANNELS 3 Zrotation Xrotation Yrotation
						JOINT LeftArm
						{
							OFFSET 18.41580 0.00000 0.00000
							CHANNELS 3 Zrotation Xrotation Yrotation
							JOINT LeftForeArm
							{
								OFFSET 29.11090 0.00000 0.00000
								CHANNELS 3 Zrotation Xrotation Yrotation
								JOINT LeftHand
								{
									OFFSET 24.65040 0.00000 0.00000
									CHANNELS 3 Zrotation Xrotation Yrotation
									JOINT LeftHandThumb1
									{
										OFFSET 5.35114 -0.85590 3.97906
										CHANNELS 3 Zrotation Xrotation Yrotation
										JOINT LeftHandThumb2
										{
											OFFSET 4.52789 0.00000 0.00000
											CHANNELS 3 Zrotation Xrotation Yrotation
											JOINT LeftHandThumb3
											{
												OFFSET 2.46977 0.00000 0.00000
												CHANNELS 3 Zrotation Xrotation Yrotation
												End site
												{
													OFFSET 0.00000 0.00000 0.00000
												}
											}
										}
									}
									JOINT LeftHandIndex1
									{
										OFFSET 14.26970 0.00000 2.88139
										CHANNELS 3 Zrotation Xrotation Yrotation
										JOINT LeftHandIndex2
										{
											OFFSET 5.48836 0.00000 0.00000
											CHANNELS 3 Zrotation Xrotation Yrotation
											JOINT LeftHandIndex3
											{
												OFFSET 3.01859 0.00000 0.00000
												CHANNELS 3 Zrotation Xrotation Yrotation
												End site
												{
													OFFSET 0.00000 0.00000 0.00000
												}
											}
										}
									}
									JOINT LeftHandMiddle1
									{
										OFFSET 14.26970 0.00000 -0.09147
										CHANNELS 3 Zrotation Xrotation Yrotation
										JOINT LeftHandMiddle2
										{
											OFFSET 6.17440 0.00000 0.00000
											CHANNELS 3 Zrotation Xrotation Yrotation
											JOINT LeftHandMiddle3
											{
												OFFSET 3.56744 0.00000 0.00000
												CHANNELS 3 Zrotation Xrotation Yrotation
												End site
												{
													OFFSET 0.00000 0.00000 0.00000
												}
											}
										}
									}
									JOINT LeftHandRing1
									{
										OFFSET 12.69180 0.00000 -3.06433
										CHANNELS 3 Zrotation Xrotation Yrotation
										JOINT LeftHandRing2
										{
											OFFSET 5.62556 0.00000 0.00000
											CHANNELS 3 Zrotation Xrotation Yrotation
											JOINT LeftHandRing3
											{
												OFFSET 3.56744 0.00000 0.00000
												CHANNELS 3 Zrotation Xrotation Yrotation
												End site
												{
													OFFSET 0.00000 0.00000 0.00000
												}
											}
										}
									}
									JOINT LeftHandPinky1
									{
										OFFSET 11.11390 0.00000 -6.03719
										CHANNELS 3 Zrotation Xrotation Yrotation
										JOINT LeftHandPinky2
										{
											OFFSET 4.52789 0.00000 0.00000
											CHANNELS 3 Zrotation Xrotation Yrotation
											JOINT LeftHandPinky3
											{
												OFFSET 2.46976 0.00000 0.00000
												CHANNELS 3 Zrotation Xrotation Yrotation
												End site
												{
													OFFSET 0.00000 0.00000 0.00000
												}
											}
										}
									}
								}
							}
						}
					}
					JOINT pCube4
					{
						OFFSET 0.00000 10.91090 1.10792
						CHANNELS 3 Zrotation Xrotation Yrotation
						End site
						{
							OFFSET 0.00000 0.00000 0.00000
						}
					}
				}
			}
		}
	}
	JOINT RightUpLeg
	{
		OFFSET -9.98441 0.00000 0.00000
		CHANNELS 3 Zrotation Xrotation Yrotation
		JOINT RightLeg
		{
			OFFSET 0.00000 -42.11790 0.00000
			CHANNELS 3 Zrotation Xrotation Yrotation
			JOINT RightFoot
			{
				OFFSET 0.00000 -45.00020 -0.00001
				CHANNELS 3 Zrotation Xrotation Yrotation
				JOINT RightForeFoot
				{
					OFFSET 0.00000 -3.74820 0.00000
					CHANNELS 3 Zrotation Xrotation Yrotation
					JOINT RightToeBase
					{
						OFFSET 0.00000 0.06325 14.43120
						CHANNELS 3 Zrotation Xrotation Yrotation
						End site
						{
							OFFSET 0.00000 0.00000 0.00000
						}
					}
				}
			}
		}
	}
	JOINT LeftUpLeg
	{
		OFFSET 9.98441 0.00000 0.00000
		CHANNELS 3 Zrotation Xrotation Yrotation
		JOINT LeftLeg
		{
			OFFSET 0.00000 -42.11800 0.00000
			CHANNELS 3 Zrotation Xrotation Yrotation
			JOINT LeftFoot
			{
				OFFSET 0.00000 -45.00070 0.00000
				CHANNELS 3 Zrotation Xrotation Yrotation
				JOINT LeftForeFoot
				{
					OFFSET 0.00000 -3.74824 0.00000
					CHANNELS 3 Zrotation Xrotation Yrotation
					JOINT LeftToeBase
					{
						OFFSET 0.00000 0.06325 14.43110
						CHANNELS 3 Zrotation Xrotation Yrotation
						End site
						{
							OFFSET 0.00000 0.00000 0.00000
						}
					}
				}
			}
		}
	}
}
MOTION
Frames: 4
Frame Time: 0.050000
-0.03302591399866083 -0.03514720067630076 -0.024146566992689612 -0.0287468076226242 0.028423431927380546 0.013407543182678637 -4.862753351653748 9.284236128311974 -0.37299306490749873 -0.7781854292098925 2.921518486384803 0.4554694116208993 -0.9932533287955877 0.45330264333698006 -0.5979689917195105 -1.1459142470011632 0.21576849779661045 -0.9312198706140358 -0.6311412500054119 6.2618540395112285 1.0990172202408768 -0.4627409083417642 -2.178156719856485 -2.4503303898282263 -0.5284823285625898 -16.8206113634062 -0.09876842630943485 2.8577867478829204 0.13738772428474744 -7.1041244372103085 52.81439025514631 4.72709288965357 35.59408356875401 6.756085762809987 17.53944637393994 74.28973228609378 27.70042156606238 -0.12024805588781841 -9.556510502528548 4.52576420107812 -0.1395052069232658 -1.6061850824363044 -0.0047039147008946305 -0.013462691390936306 -56.2481810004572 -0.024316352539364955 -0.04292907426264862 -56.274444409338166 -38.79642106559662 0.006589719480732425 0.029103224381666917 0.021397420437739855 0.0065620354305896255 0.02197547270199325 -0.022539471988757838 -0.029195175584114632 0.04029063532566613 -36.662868940432936 0.005349732703813529 -0.003264924881282339 0.0341301982676808 -0.026446283762526432 0.006048981148690262 0.020223038053374824 -0.007480522279344758 -0.007380866510349531 -19.778159401190006 0.03557035871351207 -0.033384631474265625 0.04375878081709605 -0.02052438996654579 0.021721333062978708 -0.03979551551581103 -0.040774174742552176 0.01730589517284719 24.040427598444143 0.014045160765874903 0.017184036019392772 28.892377641039506 0.009048684725902709 -0.029726324026785433 28.848984105814438 -0.03644173271824833 0.04736003332627022 -2.1975092122305644 0.09062172811472698 7.0216853565436255 -50.74646331769744 19.75728028727728 -29.16822778995266 -24.41164908258937 15.003214818472014 -82.23800941602343 -25.667011279889547 -7.999126202874512 6.3314936486328275 -0.4882718451246999 0.021393820030039923 -8.109134041892979 0.02601968446230951 0.0426550361120111 44.56267637490238 -0.032732252711870656 0.035740911991732814 44.583837306802195 12.484163972028083 -0.008974351409297955 -0.020406364194240818 0.019118060056030842 -0.012815452009522317 0.0033368274613488273 -0.033044563750973865 0.01939375050571717 0.03531132628834443 11.101428250008738 -0.049321330276715966 0.04799875857257845 0.010947963544395409 -0.02266882522774013 -0.04299156634581352 -0.028055990277611166 0.02411500193549169 -0.004262346180893523 4.797063024079006 -0.013527691427054251 -0.010752225343171296 0.02369512491839928 0.04477060715608106 0.041465085394988874 0.008570961213273177 -0.03620607362793063 0.0480102285273405 -5.58262514291685 -0.00674326053388435 -0.013611198692403672 -6.707746583110836 -0.00881449570466892 0.025673445713470664 -6.762577225754718 -0.04434599058616017 0.027464739862920282 -0.046778021971830425 -0.023405404625101052 -0.0011735471174592303 8.043397190989863 3.5070019310326908 -19.243279129054198 0.041635472423679175 10.364038863478314 0.044133287811166697 -5.62009404158166 -15.626557243612652 3.1489662355418817 -0.017763791005063735 -0.005874297356674599 -0.0010343766751865241 0.008785059173159677 4.670602049276671 0.04238494997351327 12.5048024449631 -8.222851257174026 6.898695756529326 0.021689176186873334 46.41232515297133 -0.0007018824946285771 -4.336959641542379 -14.782016710545193 -3.884175649772688 -0.03482333056046089 0.026313729638655994 -0.009381970870001933 0.01851998667920407 -10.73952153582086 -0.002424680778246058 
0.03575535818286843 -0.0257085638457247 0.02201037658662493 0.03578723291956636 -0.036034893886964514 -0.048747077592150204 -4.886582754440943 9.18546608542032 -0.35551024282148963 -0.8367708780783464 2.8944426934083336 0.3974261532495001 -1.0526958544187024 0.40878290616928353 -0.6733128267325368 -1.140936133436916 0.20902218005645767 -0.9863094755292514 -0.6776453993956219 6.148490411108411 1.1448085092265698 -0.4992493646269415 -2.1149138423559246 -2.183303022587168 -0.6042396545473823 -16.725022503221563 -0.09053299229863854 3.1386520424601585 0.06000257185061374 -7.142924793007308 50.60846678721429 4.253800000961097 33.070820098096675 2.046853327562641 17.11308662858784 71.19471908267525 28.631896004841966 -0.15827637860887414 -8.797500733244986 4.507117054997783 -0.13166036073390006 -1.56145056372501 0.04031006196943234 -0.014376879484071303 -56.2332461590347 0.012397519828903542 0.01022629652222457 -56.21619269725632 -38.72261287111311 0.017009106608357458 0.018234013393106416 -0.049092279482993925 0.030892445411302403 -0.022116907677210446 0.023851288773038784 -0.022384361718143654 -0.0004493948249428045 -36.685519029258856 0.02674562565905088 -0.03889358109817279 0.019169532419029956 0.034721034878675755 -0.013604751898933013 0.04168672702513295 0.04260952685953325 -0.03129313167356126 -19.71198450109726 -0.019732525381222304 0.005661446966252198 0.013225395154056817 -0.011395521957509107 0.007236473232549944 0.03427885614408516 0.012886736748456234 0.037702449716907456 24.022811036136368 0.02914227193843483 0.03239017660297783 28.875154542813 -0.026098002527049215 0.005490367091669275 28.822231243984533 -0.012877054044435574 -0.017929695146364246 -2.2232611174512695 0.0983662098079427 7.155975564446571 -49.208096050177005 19.745932245700075 -28.833772295648888 -19.690335265017538 13.757187637233923 -80.83651947373784 -26.484039114530155 -8.472429009967481 6.680735857648115 -0.4323269973457823 0.044090011681450686 -8.13587523485647 -0.003970639586576986 0.037726211066257426 44.57150044045136 0.006171751589819896 -0.006527884443081238 44.553185946086664 12.424131309971576 -0.010657390596867823 0.0030671954602475462 -0.017569210675475424 0.029562983649209923 0.03496529361058987 -0.010772293301678424 -0.00697739949992447 0.010921690362550687 11.11457733419245 0.03902123557639849 -0.0028619203789558016 0.01990453522659695 -0.02999144679681053 0.0226589110705941 0.044451231110937885 0.0017291373012889874 -0.03513387235512779 4.73253302178074 0.028795768285243294 -0.011463420863667131 0.023804554608608672 -0.004025864542221203 0.0126790169165441 0.03868368934532479 0.03211299667855798 0.015732196042407134 -5.579135308213734 0.032725124478653354 -0.02750261729161002 -6.766835157553757 -0.030548518754827766 0.046571411476130906 -6.725372750702846 -0.04013477392010257 0.027514631975979767 0.000595582907654249 0.006904957160979673 -0.010664446064442435 8.03121744217594 3.4988927861731742 -19.221326744133336 0.03336221734074313 10.444379380493842 0.049644152943592146 -5.65977495258904 -15.667144427527788 3.192719347239928 0.04442110088527682 -0.006881388405573565 0.0006361483001034278 0.03220301861086544 4.736879470474847 -0.008784285396255028 12.424708938820112 -8.253839890728713 6.869393080378414 -0.0028333909960510393 46.417061659017115 0.01639566856348631 -4.31448243633603 -14.778493759107837 -3.7981693483503487 -0.007034335956464321 -0.035641078339002874 0.04805779129192448 0.030947777082588144 -10.719596269178012 -0.030747650570967462 
-0.01927761295104645 0.012156910018203682 0.023994454495985754 0.029775831511718545 0.01281316682992764 -0.03049276361299072 -4.832455362936489 9.150583813242092 -0.4230510988917996 -0.8290562813868776 2.889806067884658 0.416751086864072 -1.0291678298822964 0.44878272208433595 -0.8272988936368793 -1.0374566692234677 0.19039724324349985 -1.010491062755426 -0.6803692052567257 5.991322264965046 1.1325798052965204 -0.5172607454104393 -2.075052845996702 -2.154770365420802 -0.5509188439076741 -16.60897509519861 -0.051946524342843796 3.665141399447462 -0.08201073467153067 -7.2153992025165685 48.9846040401878 4.12084158683657 30.31392032171504 -0.915203559708954 16.941049506006106 68.1839899969353 29.82108950476965 -0.12511060269491148 -8.655995276462635 4.556416962675828 -0.14293090124887503 -1.5594782067085793 0.036435115537874284 0.003989004482179027 -56.25813936331656 0.04313458944475191 -0.028773338447193333 -56.22818654732028 -38.735997455527155 0.029023892489585392 -0.00938761976430483 0.03695090196014983 0.029114624773986728 0.007494457901579935 -0.03258095244190249 -0.004517730613974897 0.030473602174748673 -36.66941850216111 0.016667709019698013 0.028352814116391324 0.03053959757542101 0.03631687457216882 0.01453757158489034 -0.002968471149853175 -0.028983847268081574 -0.0439562997511038 -19.77593202496671 -0.04177342250535969 -0.01968699269387244 0.04504574781669405 -0.024224684262180985 0.031745779657780505 -0.012202751419564263 -0.04770042987287435 -0.039342258900009516 24.049539470739965 -0.0006722708098647416 -0.04522779932964737 28.828841305666725 0.008083233367793163 0.02473206562688187 28.900387875314586 -0.04708656061816235 -0.01795535808205366 -2.415038259150505 0.030894588115193213 7.2405846890125725 -47.61539310280481 20.362516273143328 -28.721126703321854 -14.50850648527911 11.729069039787538 -79.42440214050897 -27.55665377848718 -9.07308058042394 7.370622234389312 -0.48802157041875616 0.09220036481177946 -8.127688802196198 0.018353893380301793 0.008857077479051371 44.59052907057747 -0.0186718136476346 0.014140758409712672 44.60992469723589 12.497065527172069 0.034521358906593726 -0.012802256040826616 -0.0027310053730665055 0.0368027447202753 0.01722577288286603 0.019874988647329964 0.021828215420953655 0.03328533665404266 11.151994504985664 0.015542326543246032 0.012489058533314086 -0.04588133227905793 -0.01837719623130943 0.039162542089893795 -0.0018714980745083518 -0.01706783984852185 -0.0378420872612073 4.811826393398373 0.0017973441405393605 0.02223609929724456 0.012973628159112944 0.0021414290975590553 -0.01792026222082096 0.018359652146480828 -0.015072349814717431 0.04827439788290589 -5.597120316417056 0.014883033566972553 -0.03768313488666811 -6.719887314985912 0.017893767458052184 -0.04278623834195547 -6.724923311448637 0.01313464021286817 -0.02113333047974407 -0.015347858803772211 0.007868713122754747 -0.006352418835622775 8.061915464741753 3.542493316769733 -19.227273724145505 -0.02802385558779265 10.354916444218663 -0.017876870901025136 -5.651700910378178 -15.676897991182189 3.2119711907858024 -0.006697383059760145 0.012873802710500372 0.0472292708768151 0.015606556641765107 4.65458359598112 -0.000502586049506935 12.484460877422011 -8.28373336223535 6.8714497726097505 0.03062511139757983 46.38522249397364 0.03655356465388576 -4.2850621249546315 -14.72262765632722 -3.8277627077924232 -0.007024356458491373 0.04506199401427169 0.025581115543137144 0.02642292053583958 -10.731850733993312 0.01646476017909399 
0.03892402935445786 0.006509666200861828 -0.025462842302326684 0.04989987449643868 0.005451526434349913 -0.009704815742517324 -4.767399040544823 9.048655139796525 -0.4194748944146263 -0.7920288618559308 2.917753314813952 0.4078139318867303 -1.0201787953723283 0.4150988221493419 -1.0059547891181515 -0.9740564382965056 0.17627063617685249 -1.0107109535306282 -0.6928069603215065 5.922065700184716 1.0540085887862511 -0.4658152612385594 -2.0330591879587323 -2.2925637741911977 -0.5124672800156373 -16.54738528554479 -0.06972054439421578 3.9293866576466208 -0.18462521164885135 -7.170124314602477 47.83667278698336 4.078386296686746 28.901200274029023 -1.9818926991691215 16.83100628554976 66.61056350656796 30.881266634421372 -0.027668449609202478 -8.754691602642428 4.539981119566093 -0.16871141681259175 -1.6378693432870124 -0.03608864683002222 0.030404345472155772 -56.25870523064563 -0.03894872645120348 0.011880364541037199 -56.25913851007549 -38.74057920983682 -0.03600099215915831 -0.04427554962856881 0.0093753132573818 0.04127188905350787 -0.0014157524160285664 -0.027782882531475747 0.032537364644440694 0.019355317827197866 -36.68675393773418 -0.007775801060832102 0.035669849413060534 -0.006469716572742505 0.008618830366951482 0.019228986171223372 0.04110142494737062 0.024693889988068412 0.022589844655942087 -19.727163455440984 -0.008267949057227343 -0.019102666585039473 0.01086438928948564 -0.0487849130417971 -0.02908825044179419 0.035137024174494616 0.0156090299658749 0.04529448803846218 24.024197320071124 -0.014163913456398142 -0.01673190079367085 28.832490256411383 -0.030261952855227394 0.030682903722912203 28.843635785410935 -0.03702842182955567 0.03040126530541953 -2.4584876664076023 0.028122507724273986 7.175862718987069 -46.36961161016665 21.268260235531198 -29.483614399345807 -10.330775890134131 9.485389634671366 -78.82855885716151 -28.505504907556876 -9.693395420043103 7.982124090817753 -0.45218323561150436 0.04805460634818198 -8.141444002291593 0.01921492787480418 -0.026470561083690856 44.52429245024654 0.0196909727151102 0.011051617548507845 44.588985189447406 12.457216626629235 0.02649328253585909 0.004902912827284547 0.03332865504812213 0.007033616300148892 -0.0029715722791190855 0.03967852991003778 -0.020722183214150845 0.02589083320303546 11.099470697932077 0.02881476770700365 -0.027704159824209904 0.049781385616435386 0.033772368202748405 -0.016002459963911635 -0.03986582734370946 0.02491931118999147 0.004367307712713538 4.8199887993351025 -0.006049055119655525 -0.033514505087132516 -0.011848172625231928 -0.013134248322098214 0.015240326732008072 0.036136992936557574 0.010482258883500304 -0.02446983811661662 -5.59110919193768 -0.02369694995198821 -0.017831188573630075 -6.727005433511376 0.009626593013180237 0.007846737113427819 -6.685649767382176 -0.04890396582300819 0.00973340562250889 0.008421396715950512 0.04772176577589441 0.008219335715203297 8.050024272669251 3.4986326597203363 -19.195704074822597 0.010282146150402011 10.402746499098859 8.78051585195324e-05 -5.630084096707204 -15.634702004912008 3.2145332740527786 0.047754044224609285 -0.02473208772974514 0.005132981980041599 -0.0312629027866707 4.6975398843152245 0.0449026355653535 12.439678385938675 -8.247953343467628 6.9077061268082645 0.0030322220304169183 46.42437234687616 0.03301020443348605 -4.309966558692004 -14.763839555690321 -3.869314610735855 0.03813394173029293 0.021017102040643332 -0.04021284692679865 -0.04330509288394441 -10.769690160937916 -0.0455102287148713 
